<svg width="10.341mm" height="9.8123mm" version="1.1" viewBox="0 0 10.341 9.8123" xmlns="http://www.w3.org/2000/svg">
 <g transform="translate(-69.235 -148.49)">
  <g fill="#362701">
   <g transform="translate(63.447 -8.2632)">
    <path d="m10.939 158.05h0.84336v3.3734h-0.84336v-0.35657q-0.24805 0.23564-0.49919 0.34106-0.24805 0.10232-0.5395 0.10232-0.65422 0-1.1317-0.50539-0.47749-0.5085-0.47749-1.2619 0-0.78135 0.46199-1.2805 0.46199-0.4992 1.1224-0.4992 0.30386 0 0.57051 0.11472 0.26665 0.11473 0.49299 0.34417zm-0.88987 0.69453q-0.39377 0-0.65422 0.27905-0.26045 0.27595-0.26045 0.71004 0 0.43718 0.26355 0.71933 0.26665 0.28216 0.65422 0.28216 0.39998 0 0.66352-0.27596 0.26355-0.27905 0.26355-0.72863 0-0.44029-0.26355-0.71314t-0.66663-0.27285z" style="font-feature-settings:normal;font-variant-caps:normal;font-variant-ligatures:normal;font-variant-numeric:normal"/>
    <path d="m13.478 156.75v1.6743q0.22944-0.22944 0.49609-0.34417 0.26665-0.11472 0.57051-0.11472 0.66042 0 1.1224 0.4992 0.46199 0.49919 0.46199 1.2805 0 0.75344-0.47749 1.2619-0.47749 0.50539-1.1317 0.50539-0.29146 0-0.5426-0.10232-0.25115-0.10542-0.4992-0.34106v0.35657h-0.84026v-4.6757zm0.88987 1.9968q-0.39998 0-0.66353 0.27285t-0.26355 0.71314q0 0.44958 0.26355 0.72863 0.26355 0.27596 0.66353 0.27596 0.38757 0 0.65112-0.28216 0.26665-0.28215 0.26665-0.71933 0-0.43409-0.26045-0.71004-0.26045-0.27905-0.65732-0.27905z" style="font-feature-settings:normal;font-variant-caps:normal;font-variant-ligatures:normal;font-variant-numeric:normal"/>
    <path d="m10.939 161.96h0.84336v3.3734h-0.84336v-0.35657q-0.24805 0.23564-0.49919 0.34106-0.24805 0.10232-0.5395 0.10232-0.65422 0-1.1317-0.50539-0.47749-0.5085-0.47749-1.2619 0-0.78135 0.46199-1.2805 0.46199-0.4992 1.1224-0.4992 0.30386 0 0.57051 0.11472 0.26665 0.11473 0.49299 0.34417zm-0.88987 0.69453q-0.39378 0-0.65422 0.27905-0.26045 0.27595-0.26045 0.71004 0 0.43718 0.26355 0.71933 0.26665 0.28216 0.65422 0.28216 0.39998 0 0.66353-0.27596 0.26355-0.27905 0.26355-0.72863 0-0.44029-0.26355-0.71314t-0.66663-0.27285z" style="font-feature-settings:normal;font-variant-caps:normal;font-variant-ligatures:normal;font-variant-numeric:normal"/>
    <path d="m13.478 161.96v0.37207q0.22944-0.22944 0.49609-0.34417 0.26665-0.11472 0.57051-0.11472 0.66042 0 1.1224 0.4992 0.46199 0.49919 0.46199 1.2805 0 0.75344-0.47749 1.2619-0.47749 0.50539-1.1317 0.50539-0.29146 0-0.5426-0.10232-0.25115-0.10542-0.4992-0.34106v1.5906h-0.84026v-4.6075zm0.88987 0.69453q-0.39998 0-0.66353 0.27285t-0.26355 0.71314q0 0.44958 0.26355 0.72863 0.26355 0.27596 0.66353 0.27596 0.38757 0 0.65112-0.28216 0.26665-0.28215 0.26665-0.71933 0-0.43409-0.26045-0.71004-0.26045-0.27905-0.65732-0.27905z" style="font-feature-settings:normal;font-variant-caps:normal;font-variant-ligatures:normal;font-variant-numeric:normal"/>
   </g>
   <circle cx="70.003" cy="156.14" r=".7684" stroke-width=".26458"/>
  </g>
 </g>
</svg>
