<svg width="9.9386mm" height="10.635mm" version="1.1" viewBox="0 0 9.9386 10.635" xmlns="http://www.w3.org/2000/svg">
 <g transform="translate(-63.066 -138.98)">
  <g fill="#362701">
   <g transform="translate(56.58 93.34)">
    <g transform="translate(.04259)">
     <path d="m12.651 50.41v-0.49905l-0.30322-0.05054c-0.04567-0.0045-0.07436-0.01448-0.08607-0.03001-0.01172-0.01553-0.01671-0.04764-0.01501-0.09633v-1.535c4e-3 -0.43456-0.10028-0.73567-0.31269-0.90334-0.21241-0.16766-0.55669-0.24768-1.0328-0.24005-0.31085-0.01276-0.60986 0.04278-0.89702 0.16661-0.28716 0.12384-0.44088 0.39258-0.46114 0.80622l0.8907 0.0758c2.21e-4 -0.18346 0.03922-0.30137 0.11686-0.35376 0.07765-0.05238 0.19241-0.07554 0.34428-0.06949 0.18898 0.0022 0.30848 0.0483 0.35849 0.13819 0.05001 0.08989 0.07159 0.21018 0.06475 0.36086v0.34744l-0.72646 0.05054c-0.39468 0.02316-0.69027 0.11266-0.88676 0.26848-0.19649 0.15582-0.29466 0.39061-0.29453 0.70435-0.011319 0.2103 0.042904 0.41508 0.16266 0.61433 0.11976 0.19925 0.37297 0.30611 0.75963 0.32059 0.25031-3e-3 0.46035-0.04435 0.63013-0.12397 0.16977-0.07962 0.31348-0.17938 0.43114-0.29927l0.03158 0.0063 0.06317 0.34112zm-1.3329-0.83385c-0.0741 0.05646-0.16122 0.10778-0.26137 0.15398-0.10015 0.04619-0.20465 0.07067-0.31348 0.07344-0.10621 0.0013-0.19228-0.02501-0.25821-0.07896-0.06593-0.05396-0.09989-0.14345-0.10186-0.26848-0.0022-0.1245 0.0354-0.21504 0.11292-0.27163 0.07751-0.05659 0.20833-0.09028 0.39245-0.10107l0.42956-0.03158z"/>
     <path d="m14.014 50.41 0.04422-0.31585 0.03159-0.0063c0.09831 0.11331 0.22544 0.20728 0.38139 0.2819 0.15595 0.07462 0.33836 0.11331 0.54722 0.11608 0.39521 0.0058 0.71343-0.13371 0.95466-0.4185 0.24123-0.28479 0.3652-0.74962 0.37192-1.3945-0.0082-0.58143-0.12608-0.99783-0.35376-1.2492-0.22768-0.25136-0.51616-0.37402-0.86544-0.36797-0.19136 4.2e-4 -0.36455 0.02961-0.51958 0.08765-0.15503 0.05804-0.2998 0.14253-0.4343 0.25347l-0.02527-0.0063v-1.7498h-1.3013l-0.06949 0.51168 0.34744 0.12002c0.03106 0.0095 0.05264 0.02527 0.06475 0.04738s0.01791 0.05054 0.01738 0.08528v3.0827c-0.0011 0.15608-0.01145 0.31296-0.03079 0.47062-0.01934 0.15766-0.04067 0.30822-0.06396 0.45167zm0.13898-2.3878c0.07765-0.05343 0.1703-0.10291 0.27795-0.14845 0.10765-0.04553 0.21925-0.06975 0.3348-0.07265 0.20938 0.0076 0.35915 0.09976 0.4493 0.27637 0.09015 0.17662 0.1341 0.39192 0.13187 0.64592 4.42e-4 0.31901-0.04949 0.56854-0.15003 0.74857-0.10055 0.18004-0.25479 0.27163-0.46272 0.27479-0.11187-2e-3 -0.2182-0.02645-0.31901-0.07344-0.10081-0.04698-0.1882-0.10462-0.26216-0.17293z"/>
    </g>
    <g transform="translate(0 -.52917)">
     <path d="m12.694 55.465v-0.49905l-0.30322-0.05054c-0.04567-0.0045-0.07436-0.01448-0.08607-0.03001-0.01172-0.01553-0.01671-0.04764-0.01501-0.09633v-1.535c0.0039-0.43456-0.10029-0.73567-0.3127-0.90334-0.21241-0.16766-0.55669-0.24768-1.0328-0.24005-0.31085-0.01276-0.60986 0.04278-0.89702 0.16661-0.28716 0.12384-0.44088 0.39258-0.46114 0.80622l0.89071 0.0758c2.21e-4 -0.18346 0.03922-0.30137 0.11686-0.35376 0.07765-0.05238 0.19241-0.07554 0.34428-0.06949 0.18898 0.0022 0.30848 0.0483 0.35849 0.13819 0.05001 0.08989 0.07159 0.21018 0.06475 0.36086v0.34744l-0.72646 0.05054c-0.39469 0.02316-0.69027 0.11266-0.88676 0.26848-0.19649 0.15582-0.29466 0.39061-0.29453 0.70435-0.01132 0.2103 0.0429 0.41508 0.16266 0.61433 0.11976 0.19925 0.37297 0.30611 0.75963 0.32059 0.25031-3e-3 0.46035-0.04435 0.63013-0.12397 0.16977-0.07962 0.31348-0.17938 0.43114-0.29927l0.03159 0.0063 0.06317 0.34112zm-1.3329-0.83385c-0.0741 0.05646-0.16122 0.10778-0.26137 0.15398-0.10015 0.04619-0.20465 0.07067-0.31348 0.07344-0.10621 0.0013-0.19228-0.02501-0.25821-0.07896-0.06593-0.05396-0.09989-0.14345-0.10186-0.26848-0.0022-0.1245 0.0354-0.21504 0.11292-0.27163 0.07751-0.05659 0.20833-0.09028 0.39245-0.10107l0.42956-0.03158z"/>
     <path d="m14.978 56.804v-0.49905l-0.65697-0.05685c-0.04567-0.0017-0.07436-0.01092-0.08607-0.02764-0.01172-0.01672-0.01671-0.04962-0.01501-0.0987v-0.90334c0.13318 0.10739 0.27584 0.18793 0.42798 0.24163 0.15214 0.0537 0.31059 0.08054 0.47536 0.08054 0.3442-0.0083 0.61107-0.10887 0.80063-0.30158 0.18955-0.19271 0.32119-0.42753 0.39494-0.70447 0.07373-0.27694 0.10898-0.54592 0.10575-0.80694-0.0063-0.58143-0.12003-0.99783-0.34112-1.2492-0.2211-0.25136-0.51168-0.37402-0.87175-0.36797-0.18333 0.0012-0.36942 0.03672-0.55827 0.1066-0.18885 0.06989-0.36073 0.16701-0.51563 0.29137l-0.03158-0.01263-0.05685-0.32217h-1.1118l-0.06949 0.51168 0.3348 0.12002c0.03106 0.0095 0.05264 0.02527 0.06475 0.04738s0.01791 0.05054 0.01738 0.08528v3.1901c8.84e-4 0.04619-0.0071 0.07857-0.02369 0.09713-0.01658 0.01856-0.04659 0.0304-0.09002 0.03553l-0.25268 0.0379v0.50536zm-0.74541-3.7144c0.07159-0.05093 0.1653-0.10068 0.28111-0.14924 0.11581-0.04856 0.2411-0.07462 0.37586-0.07817 0.16056-0.0025 0.28953 0.06883 0.38692 0.21399 0.09738 0.14516 0.1474 0.37916 0.15003 0.70198 0.0015 0.31349-0.04567 0.56143-0.14134 0.74383-0.09568 0.1824-0.2486 0.27558-0.45878 0.27953-0.11832-0.0025-0.22913-0.0275-0.33244-0.07502-0.10331-0.04751-0.19044-0.10252-0.26137-0.16503z"/>
    </g>
   </g>
   <circle cx="63.835" cy="147.57" r=".7684" stroke-width=".26458"/>
  </g>
 </g>
</svg>
