<svg width="9.9386mm" height="10.635mm" version="1.1" viewBox="0 0 9.9386 10.635" xmlns="http://www.w3.org/2000/svg">
 <g transform="translate(-63.066 -138.98)">
  <g transform="translate(-16.103 -17.791)">
   <path d="m85.377 161.54v-0.49905l-0.30322-0.0505c-0.04567-5e-3 -0.07436-0.0145-0.08607-0.03-0.01172-0.0155-0.01671-0.0476-0.01501-0.0963v-1.535c4e-3 -0.43456-0.10028-0.73567-0.31269-0.90334-0.21241-0.16766-0.55669-0.24768-1.0328-0.24005-0.31085-0.0128-0.60986 0.0428-0.89702 0.16661-0.28716 0.12385-0.44088 0.39259-0.46114 0.80622l0.8907 0.0758c2.21e-4 -0.18346 0.03922-0.30137 0.11686-0.35376 0.07765-0.0524 0.19241-0.0755 0.34428-0.0695 0.18898 2e-3 0.30848 0.0483 0.35849 0.13819 0.05001 0.0899 0.07159 0.21018 0.06475 0.36086v0.34744l-0.72646 0.0505c-0.39468 0.0232-0.69027 0.11266-0.88676 0.26847-0.19649 0.15583-0.29466 0.39061-0.29454 0.70436-0.01132 0.2103 0.0429 0.41508 0.16266 0.61433 0.11976 0.19925 0.37297 0.30611 0.75963 0.32059 0.25031-3e-3 0.46035-0.0443 0.63013-0.12397 0.16977-0.0796 0.31348-0.17938 0.43114-0.29927l0.03158 6e-3 0.06317 0.34112zm-1.3329-0.83385c-0.0741 0.0565-0.16122 0.10778-0.26137 0.15398-0.10015 0.0462-0.20465 0.0707-0.31348 0.0734-0.10621 1e-3 -0.19228-0.025-0.25821-0.079-0.06593-0.054-0.09989-0.14345-0.10186-0.26848-0.0022-0.12449 0.0354-0.21504 0.11292-0.27163 0.07751-0.0566 0.20833-0.0903 0.39245-0.10107l0.42956-0.0316z" fill="#f03c2e"/>
   <path d="m86.739 161.54 0.04422-0.31585 0.03159-6e-3c0.09831 0.11331 0.22544 0.20728 0.38139 0.2819 0.15595 0.0746 0.33836 0.11331 0.54722 0.11607 0.39521 6e-3 0.71343-0.13371 0.95466-0.4185 0.24123-0.28479 0.3652-0.74962 0.37192-1.3945-0.0082-0.58143-0.12608-0.99783-0.35376-1.2492-0.22768-0.25136-0.51616-0.37402-0.86544-0.36797-0.19136 4.2e-4 -0.36455 0.0296-0.51958 0.0876-0.15503 0.058-0.2998 0.14253-0.4343 0.25347l-0.02527-6e-3v-1.7498h-1.3013l-0.06949 0.51168 0.34744 0.12003c0.03106 0.01 0.05264 0.0253 0.06475 0.0474s0.01791 0.0505 0.01738 0.0853v3.0827c-0.0011 0.15608-0.01145 0.31296-0.03079 0.47062s-0.04067 0.30822-0.06396 0.45167zm0.13898-2.3878c0.07765-0.0534 0.1703-0.10291 0.27795-0.14845 0.10765-0.0455 0.21925-0.0697 0.3348-0.0726 0.20938 8e-3 0.35915 0.0998 0.4493 0.27638 0.09015 0.17661 0.1341 0.39192 0.13187 0.64591 4.49e-4 0.31902-0.04949 0.56854-0.15003 0.74857-0.10055 0.18004-0.25479 0.27164-0.46272 0.2748-0.11187-2e-3 -0.2182-0.0265-0.31901-0.0734-0.10081-0.047-0.1882-0.10463-0.26216-0.17293z" fill="#362701"/>
   <path d="m85.377 166.07v-0.49905l-0.30322-0.0505c-0.04567-4e-3 -0.07436-0.0145-0.08607-0.03-0.01172-0.0155-0.01671-0.0476-0.01501-0.0963v-1.535c0.0039-0.43456-0.10029-0.73568-0.3127-0.90334-0.21241-0.16767-0.55669-0.24768-1.0328-0.24005-0.31085-0.0128-0.60986 0.0428-0.89702 0.16661-0.28716 0.12384-0.44088 0.39258-0.46114 0.80621l0.89071 0.0758c2.21e-4 -0.18345 0.03922-0.30137 0.11686-0.35375 0.07765-0.0524 0.19241-0.0755 0.34428-0.0695 0.18898 2e-3 0.30848 0.0483 0.35849 0.13819 0.05001 0.0899 0.07159 0.21017 0.06475 0.36086v0.34744l-0.72646 0.0505c-0.39469 0.0232-0.69027 0.11265-0.88676 0.26847-0.19649 0.15582-0.29466 0.39061-0.29453 0.70435-0.01132 0.21031 0.0429 0.41509 0.16266 0.61434 0.11976 0.19925 0.37297 0.30611 0.75963 0.32059 0.25031-3e-3 0.46035-0.0444 0.63013-0.12398 0.16977-0.0796 0.31348-0.17937 0.43114-0.29927l0.03159 6e-3 0.06317 0.34112zm-1.3329-0.83385c-0.0741 0.0565-0.16122 0.10778-0.26137 0.15397-0.10015 0.0462-0.20465 0.0707-0.31348 0.0734-0.10621 1e-3 -0.19228-0.025-0.25821-0.079-0.06593-0.054-0.09989-0.14344-0.10186-0.26847-0.0022-0.1245 0.0354-0.21504 0.11292-0.27163 0.07751-0.0566 0.20833-0.0903 0.39245-0.10108l0.42956-0.0316z" fill="#362701"/>
   <path d="m87.661 167.41v-0.49904l-0.65697-0.0568c-0.04567-2e-3 -0.07436-0.0109-0.08607-0.0276-0.01172-0.0167-0.01671-0.0496-0.01501-0.0987v-0.90334c0.13318 0.10739 0.27584 0.18793 0.42798 0.24162 0.15214 0.0537 0.31059 0.0805 0.47536 0.0805 0.3442-8e-3 0.61107-0.10887 0.80063-0.30158 0.18955-0.19271 0.32119-0.42753 0.39494-0.70447 0.07373-0.27693 0.10898-0.54591 0.10575-0.80694-0.0063-0.58143-0.12003-0.99783-0.34112-1.2492-0.2211-0.25136-0.51168-0.37402-0.87175-0.36797-0.18333 1e-3 -0.36942 0.0367-0.55827 0.1066-0.18885 0.0699-0.36073 0.16701-0.51563 0.29138l-0.03158-0.0126-0.05685-0.32217h-1.1118l-0.06949 0.51168 0.3348 0.12002c0.03106 0.01 0.05264 0.0253 0.06475 0.0474s0.01791 0.0505 0.01738 0.0853v3.1901c8.73e-4 0.0462-0.0071 0.0786-0.02369 0.0971-0.01658 0.0186-0.04659 0.0304-0.09002 0.0355l-0.25268 0.0379v0.50536zm-0.74541-3.7144c0.07159-0.0509 0.1653-0.10067 0.28111-0.14924 0.11581-0.0486 0.2411-0.0746 0.37586-0.0782 0.16056-2e-3 0.28953 0.0688 0.38692 0.21399 0.09738 0.14517 0.1474 0.37916 0.15003 0.70199 0.0015 0.31348-0.04567 0.56143-0.14134 0.74383-0.09568 0.18241-0.2486 0.27558-0.45878 0.27953-0.11832-2e-3 -0.22913-0.0275-0.33244-0.075-0.10331-0.0475-0.19044-0.10252-0.26137-0.16503z" fill="#f03c2e"/>
   <circle cx="79.938" cy="165.36" r=".7684" fill="#362701" stroke-width=".26458"/>
  </g>
 </g>
</svg>
