<?xml version="1.0" encoding="UTF-8" standalone="no"?>
<svg
   xmlns:dc="http://purl.org/dc/elements/1.1/"
   xmlns:cc="http://creativecommons.org/ns#"
   xmlns:rdf="http://www.w3.org/1999/02/22-rdf-syntax-ns#"
   xmlns:svg="http://www.w3.org/2000/svg"
   xmlns="http://www.w3.org/2000/svg"
   xmlns:sodipodi="http://sodipodi.sourceforge.net/DTD/sodipodi-0.dtd"
   xmlns:inkscape="http://www.inkscape.org/namespaces/inkscape"
   width="543.994"
   height="133.586"
   version="1.1"
   id="svg6"
   sodipodi:docname="abapGit-orange.svg"
   inkscape:version="0.92.4 (5da689c313, 2019-01-14)">
  <metadata
     id="metadata12">
    <rdf:RDF>
      <cc:Work
         rdf:about="">
        <dc:format>image/svg+xml</dc:format>
        <dc:type
           rdf:resource="http://purl.org/dc/dcmitype/StillImage" />
        <dc:title></dc:title>
      </cc:Work>
    </rdf:RDF>
  </metadata>
  <defs
     id="defs10" />
  <sodipodi:namedview
     pagecolor="#ffffff"
     bordercolor="#666666"
     borderopacity="1"
     objecttolerance="10"
     gridtolerance="10"
     guidetolerance="10"
     inkscape:pageopacity="0"
     inkscape:pageshadow="2"
     inkscape:window-width="1850"
     inkscape:window-height="1195"
     id="namedview8"
     showgrid="false"
     inkscape:zoom="0.78309685"
     inkscape:cx="271.99701"
     inkscape:cy="66.792999"
     inkscape:window-x="717"
     inkscape:window-y="176"
     inkscape:window-maximized="0"
     inkscape:current-layer="svg6" />
  <path
     d="M112.78 52.887L63.035 3.15C60.173.283 55.527.283 52.66 3.15L42.333 13.48l13.102 13.1c3.046-1.028 6.537-.338 8.964 2.09 2.44 2.44 3.12 5.962 2.07 9.018l12.62 12.628c3.05-1.052 6.58-.372 9.02 2.072 3.41 3.41 3.41 8.934 0 12.345-3.42 3.41-8.94 3.41-12.35 0-2.57-2.567-3.2-6.335-1.9-9.495L62.09 43.46l-.002 30.992c.832.412 1.616.96 2.31 1.65 3.41 3.41 3.41 8.934 0 12.35-3.41 3.408-8.94 3.408-12.346 0-3.41-3.415-3.41-8.94 0-12.35.843-.84 1.818-1.477 2.86-1.903V42.92c-1.042-.425-2.016-1.057-2.86-1.905-2.583-2.58-3.205-6.372-1.88-9.544L37.254 18.56 3.15 52.658c-2.866 2.867-2.866 7.513 0 10.38l49.74 49.74c2.865 2.86 7.51 2.86 10.377 0L112.78 63.27c2.864-2.866 2.864-7.513 0-10.378"
     fill="#f03c2e"
     id="path2" />
  <path
     d="M192.647 109.69v-8.532l-5.184-.864c-.78-.076-1.27-.247-1.47-.513-.202-.26-.287-.81-.258-1.64V71.89c.068-7.43-1.714-12.577-5.346-15.443-3.64-2.867-9.52-4.235-17.66-4.104-5.32-.218-10.43.73-15.34 2.848-4.91 2.12-7.54 6.72-7.89 13.79l15.23 1.3c0-3.13.67-5.15 1.99-6.04 1.33-.89 3.29-1.29 5.88-1.19 3.23.04 5.27.83 6.13 2.36.85 1.54 1.22 3.6 1.1 6.17v5.94l-12.42.87c-6.75.4-11.806 1.93-15.16 4.59-3.36 2.67-5.04 6.68-5.04 12.04-.193 3.6.734 7.1 2.78 10.51 2.05 3.41 6.38 5.23 12.99 5.48 4.28-.05 7.87-.76 10.77-2.12 2.904-1.36 5.36-3.07 7.37-5.12l.54.11 1.08 5.83zM169.86 95.434c-1.267.965-2.757 1.843-4.47 2.633-1.71.79-3.498 1.208-5.36 1.255-1.814.023-3.286-.427-4.413-1.35-1.127-.922-1.708-2.452-1.74-4.59-.04-2.128.604-3.676 1.93-4.644 1.324-.967 3.56-1.543 6.708-1.728l7.344-.54zm46.077 14.256l.756-5.4.54-.108c1.68 1.937 3.854 3.544 6.52 4.82 2.666 1.275 5.785 1.937 9.355 1.984 6.757.1 12.198-2.286 16.322-7.155 4.124-4.86 6.243-12.81 6.358-23.84-.14-9.94-2.155-17.06-6.048-21.35-3.892-4.3-8.824-6.39-14.796-6.29-3.27.01-6.232.51-8.882 1.5-2.65 1-5.126 2.44-7.425 4.34l-.432-.11V28.15h-22.248l-1.188 8.75 5.94 2.05c.53.163.9.433 1.1.81.2.38.3.865.29 1.46v52.7c-.02 2.67-.2 5.35-.53 8.046-.33 2.696-.7 5.27-1.1 7.722zm2.376-40.823c1.327-.914 2.91-1.76 4.752-2.538 1.84-.78 3.748-1.2 5.724-1.25 3.57.13 6.14 1.7 7.68 4.72s2.29 6.7 2.25 11.04c.01 5.45-.85 9.72-2.57 12.79-1.72 3.08-4.36 4.64-7.91 4.7-1.92-.04-3.73-.45-5.46-1.26s-3.22-1.79-4.48-2.96zm100.264 40.823v-8.532l-5.184-.864c-.78-.076-1.272-.247-1.472-.513-.2-.26-.28-.81-.25-1.64V71.89c.07-7.43-1.71-12.577-5.34-15.443-3.63-2.867-9.52-4.235-17.66-4.104-5.31-.218-10.42.73-15.33 2.848-4.91 2.12-7.53 6.72-7.88 13.79l15.23 1.3c.01-3.13.67-5.15 2-6.04 1.33-.89 3.29-1.29 5.89-1.19 3.23.04 5.27.83 6.13 2.36.85 1.54 1.22 3.6 1.11 6.17v5.94l-12.42.87c-6.75.4-11.8 1.93-15.16 4.59-3.36 2.67-5.04 6.68-5.034 12.04-.192 3.6.735 7.1 2.78 10.51 2.05 3.41 6.38 5.23 12.99 5.48 4.28-.05 7.873-.76 10.775-2.12 2.906-1.36 5.36-3.07 7.37-5.12l.54.11 1.08 5.83zM295.79 95.434c-1.268.965-2.757 1.843-4.47 2.633-1.712.79-3.498 1.208-5.36 1.255-1.815.023-3.286-.427-4.413-1.35-1.128-.922-1.708-2.452-1.742-4.59-.038-2.128.605-3.676 1.93-4.644 1.326-.967 3.562-1.543 6.71-1.728l7.344-.54zm61.844 37.152v-8.532l-11.232-.972c-.78-.03-1.27-.187-1.47-.473-.2-.29-.287-.85-.258-1.69v-15.45c2.277 1.83 4.716 3.21 7.317 4.13 2.61.92 5.31 1.37 8.13 1.37 5.89-.14 10.45-1.86 13.69-5.16s5.49-7.31 6.75-12.05c1.26-4.74 1.87-9.33 1.81-13.8-.11-9.94-2.05-17.06-5.83-21.357-3.78-4.3-8.75-6.394-14.9-6.29-3.13.02-6.31.63-9.54 1.82-3.23 1.197-6.16 2.86-8.81 4.984l-.54-.216-.97-5.505h-19.01l-1.18 8.745 5.73 2.056c.53.163.9.433 1.11.81.21.38.308.865.3 1.46v54.54c.016.79-.12 1.34-.4 1.66-.285.317-.8.52-1.54.607l-4.32.65v8.64zM344.89 69.083c1.224-.87 2.826-1.722 4.806-2.552 1.98-.83 4.122-1.27 6.426-1.33 2.745-.04 4.95 1.18 6.615 3.66s2.52 6.48 2.565 12c.025 5.36-.78 9.6-2.416 12.72-1.636 3.12-4.25 4.72-7.844 4.78-2.023-.04-3.917-.47-5.683-1.28-1.77-.81-3.26-1.75-4.47-2.82zm118.285 11.555v-8.64H430.02l-1.513 9.72h11.988v14.148c.002.682-.137 1.154-.418 1.418-.282.263-.718.438-1.31.526-1.278.22-2.718.4-4.32.54-1.602.14-3.15.212-4.644.216-7.715-.07-13.48-2.576-17.293-7.52-3.814-4.942-5.717-11.904-5.71-20.883.056-8.566 2.022-15.275 5.9-20.13 3.876-4.852 9.325-7.322 16.347-7.41 1.71.01 3.447.15 5.21.418 1.765.27 3.34.6 4.726.99.477.09.846.29 1.107.6.26.31.468.83.62 1.57l1.62 9.72 11.99.87V36.36c-3.414-2.152-7.334-3.736-11.76-4.753-4.425-1.017-8.64-1.52-12.65-1.512-13.593.234-23.745 4.06-30.454 11.475-6.71 7.416-10.058 17.02-10.044 28.81-.19 11.85 2.73 21.52 8.76 29.01 6.033 7.49 16.325 11.355 30.875 11.596 4.575.027 9.33-.35 14.27-1.134 4.938-.783 9.506-2.133 13.702-4.05v-23.22c-.01-.528.11-.902.37-1.12.26-.218.71-.35 1.35-.392zm26.965-45.575c-.02-3.09-.875-5.443-2.566-7.06-1.692-1.618-4.113-2.433-7.263-2.444-3.09.01-5.48.82-7.16 2.44-1.68 1.61-2.53 3.97-2.55 7.06.02 3.1.87 5.49 2.55 7.17 1.68 1.68 4.07 2.53 7.17 2.55 3.15-.02 5.57-.87 7.26-2.55 1.69-1.68 2.55-4.07 2.57-7.17zm7.018 74.627v-8.532l-5.508-.756c-.78-.076-1.27-.247-1.47-.513-.2-.27-.287-.82-.257-1.65V53.42h-22.356l-1.188 8.75 5.83 2.05c.53.164.9.434 1.1.81.2.38.3.866.29 1.46v31.75c.02.786-.08 1.32-.3 1.608-.22.284-.7.47-1.43.552l-5.51.756v8.532zm42.92-12.528c-1.31.497-2.713.907-4.212 1.23-1.498.32-3.01.487-4.536.498-2.857.03-4.81-.65-5.86-2.038-1.047-1.388-1.542-3.66-1.484-6.818v-25.81h16.092v-10.8H524.85c-.414 0-.666-.084-.756-.258-.09-.173-.126-.447-.108-.823V37.007h-10.26c-.528 5.816-1.9 10.087-4.117 12.81-2.22 2.726-5.67 4.324-10.36 4.794v9.62h7.56c.41.01.66.11.75.3.09.2.12.46.11.79V93.6c-.07 6.063 1.28 10.486 4.03 13.27 2.75 2.783 7.31 4.155 13.67 4.117 3.13-.038 6.26-.475 9.37-1.31 3.11-.834 5.85-1.838 8.23-3.01z"
     fill="#362701"
     id="path4"
     style="fill:#ff724c;fill-opacity:1" />
</svg>
