<?xml version="1.0" encoding="UTF-8" standalone="no"?>
<svg
   xmlns:dc="http://purl.org/dc/elements/1.1/"
   xmlns:cc="http://creativecommons.org/ns#"
   xmlns:rdf="http://www.w3.org/1999/02/22-rdf-syntax-ns#"
   xmlns:svg="http://www.w3.org/2000/svg"
   xmlns="http://www.w3.org/2000/svg"
   xmlns:sodipodi="http://sodipodi.sourceforge.net/DTD/sodipodi-0.dtd"
   xmlns:inkscape="http://www.inkscape.org/namespaces/inkscape"
   aria-hidden="true"
   focusable="false"
   data-prefix="fab"
   data-icon="git-alt"
   class="svg-inline--fa fa-git-alt fa-w-14"
   role="img"
   viewBox="0 0 448 512"
   version="1.1"
   id="svg4"
   sodipodi:docname="git-w-abap.svg"
   inkscape:version="0.92.4 (5da689c313, 2019-01-14)">
  <metadata
     id="metadata10">
    <rdf:RDF>
      <cc:Work
         rdf:about="">
        <dc:format>image/svg+xml</dc:format>
        <dc:type
           rdf:resource="http://purl.org/dc/dcmitype/StillImage" />
        <dc:title></dc:title>
      </cc:Work>
    </rdf:RDF>
  </metadata>
  <defs
     id="defs8" />
  <sodipodi:namedview
     pagecolor="#ffffff"
     bordercolor="#666666"
     borderopacity="1"
     objecttolerance="10"
     gridtolerance="10"
     guidetolerance="10"
     inkscape:pageopacity="0"
     inkscape:pageshadow="2"
     inkscape:window-width="1899"
     inkscape:window-height="1131"
     id="namedview6"
     showgrid="false"
     inkscape:zoom="1.3037281"
     inkscape:cx="17.421345"
     inkscape:cy="279.41743"
     inkscape:window-x="2550"
     inkscape:window-y="78"
     inkscape:window-maximized="0"
     inkscape:current-layer="svg4" />
  <path
     style="fill:currentColor"
     d="M 223.5957 32.003906 C 216.21129 32.003906 208.82562 34.818113 203.18945 40.449219 L 162.5293 81.080078 L 214.05078 132.59961 C 241.11078 123.45961 266.72945 149.3693 257.43945 176.2793 L 307.09961 225.93945 C 341.32961 214.13945 368.28031 256.94086 342.57031 282.63086 C 316.08031 309.12086 272.36031 279.75906 286.57031 245.28906 L 240.2207 199 L 240.2207 320.84961 C 231.97984 323.67501 231.4635 307.2326 212 296.25586 L 212 196.84961 C 191.2 188.33961 187.39937 166.10961 193.35938 151.84961 L 142.57031 101 L 8.4492188 235.14062 C -2.8185104 246.41067 -2.8185104 264.67917 8.4492188 275.94922 L 204.06055 471.55078 C 215.32945 482.81185 233.59047 482.81185 244.85938 471.55078 L 439.55078 276.85938 C 450.81851 265.58932 450.81851 247.32083 439.55078 236.05078 L 244 40.449219 C 238.36383 34.818113 230.98012 32.003906 223.5957 32.003906 z M 81.871094 208.85156 C 83.667128 208.80537 85.448007 209.13353 87.212891 209.83398 C 92.859024 212.07694 97.725418 215.42001 101.82422 219.86914 C 108.46892 226.30331 112.09379 232.12603 112.71484 237.35352 C 113.33029 242.57386 110.6271 248.14014 104.60352 254.05469 L 83.513672 275.14453 C 82.823323 275.78787 82.451077 276.29673 82.404297 276.66797 C 82.351333 277.04227 82.606011 277.57431 83.171875 278.26172 L 86.642578 283.12109 L 79.789062 289.97461 L 63.779297 273.99805 L 67.59375 268.44727 L 67.25 267.92578 C 63.988239 267.95795 60.640513 267.3576 57.214844 266.11719 C 53.792509 264.88 50.337625 262.56657 46.859375 259.16797 C 41.74996 253.65687 39.733564 248.71652 40.826172 244.33008 C 41.921927 239.94699 43.990152 236.39149 47.037109 233.6543 C 51.343272 229.34817 55.913475 227.47495 60.757812 228.0293 C 65.589225 228.58688 70.880956 231.42007 76.625 236.52148 L 87.300781 245.80078 L 92.072266 241.0293 C 94.233402 239.06106 95.592201 237.10751 96.146484 235.1875 C 96.684735 233.26747 95.680008 230.99433 93.117188 228.36719 C 91.116859 226.20626 89.221035 224.95321 87.4375 224.59961 C 85.662019 224.25419 83.500862 225.33898 80.986328 227.85352 L 69.794922 214.57422 C 73.893105 210.86262 77.919818 208.95318 81.871094 208.85156 z M 147.95508 227.12695 L 165.82812 245 L 141.78125 269.04688 L 142.04102 269.48242 C 145.41442 269.80307 148.55988 270.63535 151.49219 271.96094 C 154.41636 273.2945 157.19761 275.2729 159.83398 277.89062 C 164.71207 282.60804 166.99392 288.24887 166.66602 294.83008 C 166.3471 301.40409 162.24625 308.7441 154.37305 316.8418 C 145.41953 325.61064 137.33071 330.29552 130.11328 330.88672 C 122.88861 331.48519 116.6 329.03021 111.25195 323.52148 C 108.42173 320.61569 106.4475 317.57806 105.33008 314.41211 C 104.21324 311.24523 103.75813 308.20847 103.96484 305.30273 L 103.44531 304.95508 L 98.5 308.68555 L 86.074219 296.25781 C 88.365401 294.60931 90.729186 292.83826 93.160156 290.9375 C 95.590858 289.0364 97.887151 287.02482 100.05078 284.89844 L 142.38867 242.5625 C 142.87462 242.09248 143.18355 241.62226 143.32812 241.15625 C 143.4704 240.69268 143.39061 240.17768 143.0957 239.62109 L 139.9707 233.20312 L 147.95508 227.12695 z M 66.337891 243.48633 C 64.743269 243.45653 63.211849 244.20261 61.744141 245.72656 C 60.052226 247.46986 59.288601 249.16649 59.453125 250.8125 C 59.616998 252.45947 60.438139 254.00273 61.914062 255.44141 C 63.447667 256.8995 65.220091 258.00121 67.228516 258.74023 C 69.239353 259.48178 71.142425 259.97403 72.935547 260.2168 L 80.136719 253.01367 L 73.802734 247.54688 C 71.125053 245.16655 68.865915 243.83373 67.025391 243.54688 C 66.795023 243.51093 66.565694 243.49058 66.337891 243.48633 z M 133.20312 277.79883 L 112.91406 298.06641 C 112.98639 300.01864 113.39564 302.00245 114.13477 304.04297 C 114.87391 306.08353 115.99945 307.86684 117.50977 309.44141 C 120.40988 312.24545 123.78446 313.11198 127.64062 312.01953 C 131.48876 310.93495 135.61137 308.19829 139.98047 303.81055 C 143.49918 300.35612 145.85205 296.79622 147.04102 293.13281 C 148.23002 289.46944 147.42754 286.14443 144.66406 283.17188 C 143.0365 281.62448 141.16531 280.42774 139.06055 279.57617 C 136.95567 278.72146 135.00346 278.13056 133.20312 277.79883 z M 183.05859 310.04102 C 184.85355 309.99374 186.63354 310.31907 188.39844 311.01953 C 194.04453 313.26255 198.9112 316.60579 203.00195 321.04688 C 209.64662 327.48107 213.27954 333.3118 213.89258 338.53125 C 214.5063 343.74996 211.80275 349.31576 205.77734 355.22852 L 184.6875 376.31641 C 183.99645 376.95903 183.61831 377.46586 183.57031 377.83594 C 183.51723 378.21025 183.77402 378.74222 184.33984 379.42969 L 187.81055 384.28906 L 180.95703 391.14258 L 165.00586 375.22461 L 168.82227 369.67383 L 168.47656 369.15234 C 165.21487 369.18439 161.86861 368.58569 158.44141 367.34375 C 155.01748 366.10491 151.56032 363.78927 148.08203 360.39062 C 142.97258 354.87953 140.95626 349.93919 142.04883 345.55273 C 143.14539 341.17043 145.21351 337.61487 148.25977 334.87695 C 152.56102 330.56603 157.13227 328.69374 161.97656 329.24805 C 166.81285 329.81039 172.09776 332.6389 177.8418 337.74023 L 188.51953 347.01758 L 193.29102 342.24609 C 195.44406 340.26982 196.80116 338.31851 197.35547 336.39844 C 197.89375 334.47839 196.89083 332.20513 194.32812 329.57812 C 192.31974 327.40905 190.42414 326.15438 188.64062 325.80078 C 186.85717 325.44731 184.70354 326.54165 182.17969 329.04688 L 170.99023 315.76758 C 175.08842 312.05606 179.1097 310.14502 183.05859 310.04102 z M 167.50391 344.6543 C 165.90997 344.62514 164.3795 345.37216 162.91016 346.89453 C 161.21989 348.63945 160.45775 350.33353 160.62305 351.98047 C 160.78689 353.62743 161.60532 355.17188 163.08203 356.61133 C 164.61565 358.06946 166.38645 359.16749 168.39648 359.9082 C 170.40733 360.64975 172.30964 361.14124 174.10352 361.38477 L 181.30469 354.18164 L 174.9707 348.7168 C 172.29306 346.33646 170.03352 345.00091 168.19141 344.71289 C 167.96114 344.67704 167.73161 344.65846 167.50391 344.6543 z M 229.55273 349.28711 L 244.82422 364.55859 L 241.18164 369.76172 L 241.44141 370.36914 C 245.27678 370.79166 248.96693 371.80818 252.52344 373.44141 C 256.07433 375.08029 259.11764 377.14633 261.64844 379.64453 C 266.67279 384.50175 268.98417 390.17667 268.56641 396.66797 C 268.1511 403.15671 263.98881 410.43574 256.0918 418.50977 C 252.54893 422.14898 248.3729 425.3449 243.55273 428.14062 C 238.73247 430.93631 233.70325 432.35044 228.44922 432.39844 C 223.19518 432.44665 218.14903 430.16622 213.30469 425.54688 C 211.03916 423.2813 209.23274 420.74993 207.875 417.91406 C 206.5246 415.08539 205.6734 412.01817 205.31445 408.71875 L 192.90234 421.13086 C 192.204 421.78217 191.82405 422.30131 191.75195 422.69531 C 191.68288 423.08572 191.95081 423.60452 192.55273 424.25586 L 200.79492 434.06055 L 193.93945 440.91406 L 165.71094 412.64844 L 172.65039 405.70703 L 176.64453 408.6543 C 177.30888 409.17882 177.88544 409.431 178.36914 409.4043 C 178.85141 409.37234 179.40269 409.04129 180.02344 408.39258 L 223.83984 364.57617 C 224.32438 364.10473 224.63457 363.63605 224.77148 363.16211 C 224.90533 362.69051 224.82421 362.1757 224.5293 361.61914 L 221.57812 355.36523 L 229.55273 349.28711 z M 234.71875 379.66016 L 214.49023 399.88672 C 214.60269 401.7184 215.04521 403.66946 215.81641 405.74219 C 216.58445 407.81163 217.7604 409.68049 219.35352 411.33789 C 222.28903 414.17676 225.67332 414.99101 229.49414 413.79883 C 233.31499 412.60664 237.36689 409.84617 241.6543 405.52148 C 246.05277 401.05071 248.57961 397.1503 249.23438 393.82031 C 249.88914 390.49032 249.0987 387.7376 246.86133 385.56445 C 244.96215 383.76168 242.88642 382.39456 240.62891 381.4707 C 238.37148 380.54679 236.40103 379.94433 234.71875 379.66016 z "
     id="path2" />
</svg>
